<svg xmlns="http://www.w3.org/2000/svg" width="94.464" height="17.568" shape-rendering="geometricPrecision" image-rendering="optimizeQuality" fill-rule="evenodd" viewBox="0 0 657 122" xmlns:v="https://vecta.io/nano" fill="#b16d1a"><path d="M9 58l-3 1v51c0 3-1 5-2 7-1 1-2 2-4 3l1 2 19-7-1-3-2 1c-2 1-4 1-5 1l-3-3v-4-7l20-8 9 9 1 1c0 1 0 2-1 2 0 1-2 2-4 3h-2l1 3 21-8-1-3-1 1c-3 1-5 0-6-1L9 58zm18 31L9 96V69l18 20zm20-36l14 41v2c0 1-1 1-2 2l-3 1 1 3 19-7-1-3-4 2h-2l-2-2-17-48-13 5 1 3 3-1c2-1 3-1 4 0 1 0 1 1 2 2zm26-8l12 41v3c-1 0-2 1-3 1l-3 1 1 3 19-6-1-2-3 1h-3c0-1-1-1-1-2L77 36l-13 4v3l3-1h4c1 1 1 1 2 3zm54-11l44 38 3-1-9-44v-4c0-2 1-3 2-4s2-1 4-2v-3l-20 5 1 2c3 0 5 0 6 1 2 1 3 4 4 7l7 31-43-36-13 3 1 2h2 3c1 0 2 1 3 2h1l8 37c0 3 0 5-1 7s-3 3-6 4l1 3 21-5-1-3c-3 1-6 1-7-1-2-1-3-3-4-6l-7-33zm60 3c-2 4-3 9-3 15 1 5 3 9 7 12s8 4 13 4c7-1 11-6 14-13l-3-1c-2 6-5 9-10 10-3 0-6 0-9-3-2-1-4-5-5-10l26-4c-1-4-2-6-3-9-2-3-4-5-7-6-2-2-5-2-9-2-4 1-8 3-11 7zm4 11c0-5 0-8 1-11 2-3 4-4 7-4 2-1 4 0 6 2 2 1 3 3 4 6 0 2 0 3-1 3 0 1-1 2-2 2l-15 2zm34-15l16 30h2l6-26 13 24h2l7-30c1-2 1-3 2-4s2-1 4-2v-2l-14 1v3c2-1 3 0 4 0s1 1 1 2v3l-5 18-10-19v-1-2c1 0 2 0 3-1h1v-2l-17 1v3h4c1 1 2 2 3 4l-5 20-10-20v-1c-1-1 0-1 0-2h2l2-1v-2l-16 1 1 3h2l2 2zm89-19c-2 5-4 10-4 16 0 5 1 10 3 14 2 5 5 8 9 11 4 2 8 4 13 4a24.56 24.56 0 0 0 15-5c3-4 6-9 7-15l-3-1c-1 6-3 11-6 14-3 2-7 4-12 4-5-1-9-3-12-6-3-5-5-11-4-20 0-10 2-17 5-21s7-6 12-6c4 0 8 2 11 6 2 3 4 8 5 14h3V1h-3l-2 5c-3-2-5-4-8-5-2 0-4-1-7-1-4 0-8 1-12 3-4 3-7 6-10 11zm75 16c1 2 2 6 2 12-1 6-2 10-4 12-2 3-5 4-8 4-2-1-5-2-6-5-2-3-2-7-2-12 0-6 1-10 3-12 2-3 5-4 8-4 3 1 5 2 7 5zm-19-3c-4 3-6 8-6 13 0 6 1 10 4 14s6 6 11 6c3 0 6 0 9-2 3-1 5-3 7-6 1-2 2-5 2-9 1-6 0-11-3-14-3-4-7-6-12-6-5-1-9 1-12 4zm44-15l-5 43c0 1-1 2-1 3h-3-3l-1 3 20 2 1-3h-4c-1-1-2-1-2-1-1-1-1-1-1-2l6-51-14-1-1 3h3c2 0 3 1 4 2 0 0 1 1 1 2zm24 3l-5 43c0 1 0 2-1 2 0 1-1 1-2 1l-4-1v3l20 2v-2l-4-1c-1 0-1 0-2-1v-2l5-51-14-1v3l3 1c1 0 2 0 3 1s1 2 1 3zm22 21c-4 3-6 8-7 13s0 10 3 14 7 6 11 7c7 1 13-2 18-9l-3-1c-3 5-8 7-13 7-3-1-6-2-7-5-2-3-2-7-2-12l25 4c1-4 1-7 0-9 0-4-2-7-4-9s-5-3-9-4c-4 0-8 1-12 4zm1 11c0-4 2-8 4-10s5-3 7-2c2 0 4 1 6 3 1 3 2 5 1 8 0 1 0 2-1 3 0 0-1 1-2 0l-15-2zm38-5c-4 3-6 8-8 14-1 5 0 10 3 13 2 4 6 7 10 8 7 1 12-2 15-9l-2-1c-3 5-7 7-11 7-3-1-5-3-7-6-1-3-2-7-1-12s3-9 6-12c2-2 5-2 8-2 1 1 3 1 4 2 0 1 1 2 1 3 0 0-1 0-1 1-1 0-2 1-2 2v3c1 1 2 2 3 2s2 0 3-1c1 0 2-1 2-3 1-2 0-4-2-7-2-2-4-4-8-4-4-1-9 0-13 2zm36 8l-6 23c0 2 0 5 1 7 2 2 4 3 6 4 4 0 6 0 9-2 2-2 4-5 5-9l-2-1c-1 4-2 6-4 7-2 2-3 2-5 2l-3-3c0-1-1-3 0-5l5-22 12 3 1-3-12-3 4-14-3-1c-1 5-3 9-6 11-2 1-4 2-7 2l-1 2 6 2zm31 8c1 1 1 3 1 4l-7 21c0 1-1 2-1 2-1 1-2 1-3 0l-4-1v3l19 6 1-3-4-1c-1 0-2-1-2-1v-2l9-29-14-4-1 3h3c2 1 3 2 3 2zm6-17c0 2 1 2 2 3 2 0 3 0 4-1 1 0 1-1 2-2 0-1 0-2-1-4 0-1-1-1-2-2-1 0-2 0-3 1-1 0-2 1-2 2-1 1-1 2 0 3zm17 25c-4 2-7 6-9 11-1 5-1 10 1 15 2 4 5 7 9 8 3 1 6 1 9 0 3 0 6-2 8-4 3-2 4-5 5-9 2-5 2-10 0-14-2-5-6-7-10-9-5-1-9-1-13 2zm4 2c3-2 5-2 8-1s5 3 6 5c1 3 0 7-1 13-2 5-4 9-7 11-2 2-5 2-8 1-2 0-4-2-5-5s-1-8 1-13 4-9 6-11zm36 10c1 1 1 2 0 3l-9 22-1 1h-3l-2-1-2 2 18 8 1-3-2-1c-2-1-2-1-3-2v-3l5-12c2-3 4-6 6-7 3-2 6-2 8-1 3 1 5 3 5 6 0 2 0 4-1 7l-6 14c0 1-1 2-2 2h-3l-2-1-1 3 17 7 1-3-2-1c-1 0-2-1-2-2-1-1-1-1 0-3l6-16c1-2 2-4 2-6-1-3-1-5-2-6s-3-3-5-3c-3-2-5-2-8-1-2 0-5 1-7 3 1-3 1-6 2-8l-11-4-1 3h1c2 1 3 2 3 3z"/></svg>